<svg width="36" height="36" viewBox="0 0 36 36" fill="none" xmlns="http://www.w3.org/2000/svg">
<path fill-rule="evenodd" clip-rule="evenodd" d="M25.1 25.16C25.69 24.26 25.91 23.8 26.36 22.79C23.04 21.53 22.51 16.8 25.79 14.99C24.79 13.73 23.38 13 22.05 13C21.09 13 20.43 13.25 19.84 13.48C19.34 13.67 18.89 13.84 18.33 13.84C17.73 13.84 17.2 13.65 16.64 13.45C16.03 13.23 15.39 13 14.59 13C13.1 13 11.51 13.91 10.5 15.47C9.08001 17.67 9.33001 21.79 11.62 25.31C12.44 26.57 13.54 27.98 14.97 28C15.57 28.01 15.96 27.83 16.39 27.64C16.88 27.42 17.41 27.18 18.34 27.18C19.27 27.17 19.79 27.42 20.28 27.64C20.7 27.83 21.08 28.01 21.67 28C23.12 27.98 24.28 26.42 25.1 25.16Z" fill="#F5EEFF"/>
<path fill-rule="evenodd" clip-rule="evenodd" d="M21.84 8C22 9.1 21.55 10.19 20.96 10.95C20.33 11.77 19.23 12.41 18.17 12.37C17.98 11.31 18.47 10.22 19.07 9.48999C19.74 8.68999 20.87 8.07 21.84 8Z" fill="#F5EEFF"/>
</svg>
